<svg xmlns="http://www.w3.org/2000/svg" xmlns:xlink="http://www.w3.org/1999/xlink" x="0px" y="0px" viewBox="0 0 94.2 94.2" style="enable-background:new 0 0 94.2 94.2;" xml:space="preserve"><g transform="translate(9 6)"><g transform="matrix(1, 0, 0, 1, -9, -6)"><path fill-rule="evenodd" clip-rule="evenodd" fill="#57bb63" d="M47.1,84.2c21.1,0,38.1-17.1,38.1-38.1S68.2,8,47.1,8S9,25.1,9,46.1c0,0,0,0,0,0C9,67.2,26.1,84.2,47.1,84.2z"></path></g><path fill-rule="evenodd" clip-rule="evenodd" fill="#ffffff" d="M38.2,60.7c-3.5,0-6.9-0.9-10-2.6l-11.5,3.6l3.7-11c-1.9-3.2-3-6.9-3-10.6C17.4,28.7,26.6,19.4,38,19.3 s20.8,9.1,20.9,20.6c0.1,11.4-9.1,20.8-20.6,20.9C38.3,60.7,38.3,60.7,38.2,60.7z M38.2,22.9c-9.6,0-17.4,7.7-17.4,17.3 c0,3.6,1.2,7.2,3.3,10.1l-2.2,6.4l6.7-2.1c7.9,5.3,18.7,3.2,24.1-4.7s3.2-18.7-4.7-24.1C45.1,23.9,41.7,22.9,38.2,22.9L38.2,22.9z M48.7,44.9c-0.1-0.2-0.5-0.3-1-0.6s-3-1.5-3.5-1.6s-0.8-0.3-1.1,0.3s-1.3,1.6-1.6,2s-0.6,0.4-1.1,0.1c-1.5-0.6-2.9-1.4-4.1-2.5 c-1.1-1-2.1-2.2-2.8-3.5c-0.3-0.5,0-0.8,0.2-1c0.2-0.2,0.5-0.6,0.8-0.9c0.2-0.3,0.4-0.5,0.5-0.8c0.1-0.3,0.1-0.6,0-0.9 c-0.1-0.3-1.1-2.7-1.6-3.7c-0.4-1-0.8-0.8-1.1-0.8c-0.3,0-0.6,0-1,0c-0.5,0-1,0.2-1.4,0.6c-1.2,1.1-1.8,2.6-1.8,4.2 c0.2,1.9,0.9,3.7,2.1,5.2c0.3,0.3,3.5,5.6,8.7,7.6s5.2,1.3,6.1,1.3s3-1.2,3.4-2.4C48.7,46.5,48.8,45.7,48.7,44.9L48.7,44.9z"></path></g></svg>